<svg xmlns="http://www.w3.org/2000/svg" width="74" height="74" viewBox="0 0 74 74" fill="none"><circle cx="37" cy="37" r="36.5" stroke="#F2543F" stroke-dasharray="4 3"></circle><path d="M22.934 37.7C22.934 36.2813 23.0733 34.9767 23.352 33.786C23.6306 32.5953 24.0233 31.5693 24.53 30.708C25.062 29.8467 25.6953 29.188 26.43 28.732C27.1646 28.2507 27.9753 28.01 28.862 28.01C29.7993 28.01 30.6226 28.2507 31.332 28.732C32.0666 29.188 32.6873 29.8467 33.194 30.708C33.726 31.5693 34.1313 32.5953 34.41 33.786C34.6886 34.9767 34.828 36.2813 34.828 37.7C34.828 39.1187 34.6886 40.4233 34.41 41.614C34.1313 42.8047 33.726 43.8307 33.194 44.692C32.6873 45.5533 32.0666 46.2247 31.332 46.706C30.6226 47.162 29.7993 47.39 28.862 47.39C27.9753 47.39 27.1646 47.162 26.43 46.706C25.6953 46.2247 25.062 45.5533 24.53 44.692C24.0233 43.8307 23.6306 42.8047 23.352 41.614C23.0733 40.4233 22.934 39.1187 22.934 37.7ZM18.526 37.7C18.526 40.4613 18.9566 42.868 19.818 44.92C20.7046 46.972 21.9206 48.568 23.466 49.708C25.0366 50.848 26.8353 51.418 28.862 51.418C30.9393 51.418 32.7506 50.848 34.296 49.708C35.8666 48.568 37.0826 46.972 37.944 44.92C38.8053 42.868 39.236 40.4613 39.236 37.7C39.236 34.9387 38.8053 32.532 37.944 30.48C37.0826 28.428 35.8666 26.832 34.296 25.692C32.7506 24.552 30.9393 23.982 28.862 23.982C26.8353 23.982 25.0366 24.552 23.466 25.692C21.9206 26.832 20.7046 28.428 19.818 30.48C18.9566 32.532 18.526 34.9387 18.526 37.7ZM42.846 30.632L49.002 28.922V51H53.448V23.982L42.846 26.376V30.632Z" fill="#F2543F"></path></svg>