<svg xmlns="http://www.w3.org/2000/svg" width="74" height="74" viewBox="0 0 74 74" fill="none"><circle cx="37" cy="37" r="36.5" stroke="#48BB0F" stroke-dasharray="4 3"></circle><path d="M20.4662 37.7C20.4662 36.2813 20.6055 34.9767 20.8842 33.786C21.1629 32.5953 21.5555 31.5693 22.0622 30.708C22.5942 29.8467 23.2275 29.188 23.9622 28.732C24.6969 28.2507 25.5202 28.01 26.4322 28.01C27.3442 28.01 28.1549 28.2507 28.8642 28.732C29.5989 29.188 30.2195 29.8467 30.7262 30.708C31.2582 31.5693 31.6635 32.5953 31.9422 33.786C32.2209 34.9767 32.3602 36.2813 32.3602 37.7C32.3602 39.1187 32.2209 40.4233 31.9422 41.614C31.6635 42.8047 31.2582 43.8307 30.7262 44.692C30.2195 45.5533 29.5989 46.2247 28.8642 46.706C28.1549 47.162 27.3442 47.39 26.4322 47.39C25.5202 47.39 24.6969 47.162 23.9622 46.706C23.2275 46.2247 22.5942 45.5533 22.0622 44.692C21.5555 43.8307 21.1629 42.8047 20.8842 41.614C20.6055 40.4233 20.4662 39.1187 20.4662 37.7ZM16.0582 37.7C16.0582 40.4613 16.4889 42.868 17.3502 44.92C18.2369 46.972 19.4529 48.568 20.9982 49.708C22.5689 50.848 24.3802 51.418 26.4322 51.418C28.5095 51.418 30.3209 50.848 31.8662 49.708C33.4115 48.568 34.6149 46.972 35.4762 44.92C36.3375 42.868 36.7682 40.4613 36.7682 37.7C36.7682 34.9387 36.3375 32.532 35.4762 30.48C34.6149 28.428 33.4115 26.832 31.8662 25.692C30.3209 24.552 28.5095 23.982 26.4322 23.982C24.3802 23.982 22.5689 24.552 20.9982 25.692C19.4529 26.832 18.2369 28.428 17.3502 30.48C16.4889 32.532 16.0582 34.9387 16.0582 37.7ZM38.2882 51H58.5802V46.82H47.0662L54.5902 39.41C55.6795 38.3967 56.5662 37.244 57.2502 35.952C57.9342 34.66 58.2762 33.3173 58.2762 31.924C58.2762 31.0373 58.0862 30.1253 57.7062 29.188C57.3262 28.2507 56.7562 27.3893 55.9962 26.604C55.2615 25.8187 54.3242 25.1853 53.1842 24.704C52.0442 24.1973 50.7015 23.944 49.1562 23.944C47.1549 23.944 45.4449 24.3747 44.0262 25.236C42.6075 26.072 41.5309 27.2373 40.7962 28.732C40.0869 30.2013 39.7322 31.886 39.7322 33.786H44.1782C44.1782 32.6207 44.3682 31.5947 44.7482 30.708C45.1535 29.8213 45.7235 29.15 46.4582 28.694C47.1929 28.2127 48.0669 27.972 49.0802 27.972C49.8149 27.972 50.4609 28.0987 51.0182 28.352C51.5755 28.58 52.0442 28.8967 52.4242 29.302C52.8295 29.7073 53.1209 30.1633 53.2982 30.67C53.5009 31.1513 53.6022 31.6453 53.6022 32.152C53.6022 32.8613 53.4882 33.5327 53.2602 34.166C53.0322 34.7993 52.6902 35.4327 52.2342 36.066C51.7782 36.6993 51.2335 37.358 50.6002 38.042L38.2882 51Z" fill="#48BB0F"></path></svg>