<svg xmlns="http://www.w3.org/2000/svg" width="74" height="74" viewBox="0 0 74 74" fill="none"><circle cx="37" cy="37" r="36.5" stroke="#899BFF" stroke-dasharray="4 3"></circle><path d="M20.9857 37.7C20.9857 36.2813 21.1251 34.9767 21.4037 33.786C21.6824 32.5953 22.0751 31.5693 22.5817 30.708C23.1137 29.8467 23.7471 29.188 24.4817 28.732C25.2164 28.2507 26.0397 28.01 26.9517 28.01C27.8637 28.01 28.6744 28.2507 29.3837 28.732C30.1184 29.188 30.7391 29.8467 31.2457 30.708C31.7777 31.5693 32.1831 32.5953 32.4617 33.786C32.7404 34.9767 32.8797 36.2813 32.8797 37.7C32.8797 39.1187 32.7404 40.4233 32.4617 41.614C32.1831 42.8047 31.7777 43.8307 31.2457 44.692C30.7391 45.5533 30.1184 46.2247 29.3837 46.706C28.6744 47.162 27.8637 47.39 26.9517 47.39C26.0397 47.39 25.2164 47.162 24.4817 46.706C23.7471 46.2247 23.1137 45.5533 22.5817 44.692C22.0751 43.8307 21.6824 42.8047 21.4037 41.614C21.1251 40.4233 20.9857 39.1187 20.9857 37.7ZM16.5777 37.7C16.5777 40.4613 17.0084 42.868 17.8697 44.92C18.7564 46.972 19.9724 48.568 21.5177 49.708C23.0884 50.848 24.8997 51.418 26.9517 51.418C29.0291 51.418 30.8404 50.848 32.3857 49.708C33.9311 48.568 35.1344 46.972 35.9957 44.92C36.8571 42.868 37.2877 40.4613 37.2877 37.7C37.2877 34.9387 36.8571 32.532 35.9957 30.48C35.1344 28.428 33.9311 26.832 32.3857 25.692C30.8404 24.552 29.0291 23.982 26.9517 23.982C24.8997 23.982 23.0884 24.552 21.5177 25.692C19.9724 26.832 18.7564 28.428 17.8697 30.48C17.0084 32.532 16.5777 34.9387 16.5777 37.7ZM48.0037 37.966C49.8784 37.966 51.5377 37.6873 52.9817 37.13C54.4511 36.5727 55.6037 35.7747 56.4397 34.736C57.2757 33.6973 57.6937 32.5067 57.6937 31.164C57.6937 29.8467 57.3644 28.656 56.7057 27.592C56.0724 26.5027 55.1477 25.6287 53.9317 24.97C52.7157 24.3113 51.2464 23.982 49.5237 23.982C47.9024 23.982 46.4711 24.3113 45.2297 24.97C43.9884 25.6033 43.0131 26.4773 42.3037 27.592C41.6197 28.7067 41.2777 29.9987 41.2777 31.468H45.4957C45.4957 30.404 45.8884 29.53 46.6737 28.846C47.4591 28.1367 48.4217 27.782 49.5617 27.782C50.3724 27.782 51.0437 27.934 51.5757 28.238C52.1077 28.542 52.5004 28.9727 52.7537 29.53C53.0324 30.062 53.1717 30.6827 53.1717 31.392C53.1717 31.9493 53.0451 32.4813 52.7917 32.988C52.5637 33.4947 52.2217 33.9507 51.7657 34.356C51.3351 34.736 50.8031 35.04 50.1697 35.268C49.5364 35.4707 48.8144 35.572 48.0037 35.572V37.966ZM49.3337 51.456C51.1577 51.456 52.7537 51.1393 54.1217 50.506C55.4897 49.8727 56.5537 48.986 57.3137 47.846C58.0737 46.706 58.4537 45.376 58.4537 43.856C58.4537 42.5387 58.1877 41.4113 57.6557 40.474C57.1237 39.5113 56.3764 38.726 55.4137 38.118C54.4764 37.51 53.3744 37.0667 52.1077 36.788C50.8411 36.5093 49.4731 36.37 48.0037 36.37V38.916C48.9157 38.916 49.7264 39.0173 50.4357 39.22C51.1704 39.4227 51.7911 39.714 52.2977 40.094C52.8297 40.474 53.2351 40.9427 53.5137 41.5C53.7924 42.0573 53.9317 42.6907 53.9317 43.4C53.9317 44.2867 53.7417 45.0467 53.3617 45.68C53.0071 46.288 52.4877 46.7567 51.8037 47.086C51.1197 47.4153 50.3217 47.58 49.4097 47.58C48.5231 47.58 47.7124 47.4153 46.9777 47.086C46.2684 46.7313 45.6984 46.2373 45.2677 45.604C44.8624 44.9707 44.6597 44.236 44.6597 43.4H40.1377C40.1377 44.4893 40.3531 45.528 40.7837 46.516C41.2144 47.4787 41.8224 48.34 42.6077 49.1C43.4184 49.8347 44.3811 50.4173 45.4957 50.848C46.6357 51.2533 47.9151 51.456 49.3337 51.456Z" fill="#899BFF"></path></svg>